<mxfile host="app.diagrams.net" modified="2022-03-26T07:43:19.621Z" agent="5.0 (Macintosh; Intel Mac OS X 10_15_7) AppleWebKit/605.1.15 (KHTML, like Gecko) Version/15.4 Safari/605.1.15" etag="LSudX9fQ8b6nbG1rAifA" version="17.2.4" type="github">
  <diagram name="Page-1" id="90a13364-a465-7bf4-72fc-28e22215d7a0">
    <mxGraphModel dx="1298" dy="842" grid="1" gridSize="10" guides="1" tooltips="1" connect="1" arrows="1" fold="1" page="1" pageScale="1.5" pageWidth="1169" pageHeight="826" background="none" math="0" shadow="0">
      <root>
        <mxCell id="0" style=";html=1;" />
        <mxCell id="1" style=";html=1;" parent="0" />
        <mxCell id="3a17f1ce550125da-2" value="&lt;br&gt;&lt;div&gt;&lt;br&gt;&lt;/div&gt;" style="whiteSpace=wrap;html=1;shadow=1;fontSize=18;fillColor=#f5f5f5;strokeColor=#666666;" parent="1" vertex="1">
          <mxGeometry x="450" y="454" width="507" height="280" as="geometry" />
        </mxCell>
        <mxCell id="0N7333uunVBGpSavvO1z-7" style="edgeStyle=orthogonalEdgeStyle;rounded=0;orthogonalLoop=1;jettySize=auto;html=1;" edge="1" parent="1" source="3a17f1ce550125da-9" target="3a17f1ce550125da-2">
          <mxGeometry relative="1" as="geometry" />
        </mxCell>
        <mxCell id="3a17f1ce550125da-9" value="Sensors" style="whiteSpace=wrap;html=1;shadow=1;fontSize=18;fillColor=#f5f5f5;strokeColor=#666666;" parent="1" vertex="1">
          <mxGeometry x="210" y="564" width="120" height="60" as="geometry" />
        </mxCell>
        <mxCell id="0N7333uunVBGpSavvO1z-1" value="Processor" style="text;html=1;align=center;verticalAlign=middle;resizable=0;points=[];autosize=1;strokeColor=none;fillColor=none;" vertex="1" parent="1">
          <mxGeometry x="820" y="734" width="70" height="20" as="geometry" />
        </mxCell>
        <mxCell id="0N7333uunVBGpSavvO1z-3" style="edgeStyle=orthogonalEdgeStyle;rounded=0;orthogonalLoop=1;jettySize=auto;html=1;" edge="1" parent="1" source="0N7333uunVBGpSavvO1z-2">
          <mxGeometry relative="1" as="geometry">
            <mxPoint x="450" y="670" as="targetPoint" />
          </mxGeometry>
        </mxCell>
        <mxCell id="0N7333uunVBGpSavvO1z-2" value="Flash Memory" style="whiteSpace=wrap;html=1;shadow=1;fontSize=18;fillColor=#f5f5f5;strokeColor=#666666;" vertex="1" parent="1">
          <mxGeometry x="210" y="640" width="120" height="60" as="geometry" />
        </mxCell>
        <mxCell id="0N7333uunVBGpSavvO1z-4" value="SPI" style="whiteSpace=wrap;html=1;shadow=1;fontSize=18;fillColor=#f5f5f5;strokeColor=#666666;" vertex="1" parent="1">
          <mxGeometry x="450" y="650" width="60" height="40" as="geometry" />
        </mxCell>
        <mxCell id="0N7333uunVBGpSavvO1z-8" value="I2C" style="whiteSpace=wrap;html=1;shadow=1;fontSize=18;fillColor=#f5f5f5;strokeColor=#666666;" vertex="1" parent="1">
          <mxGeometry x="450" y="579" width="60" height="30" as="geometry" />
        </mxCell>
        <mxCell id="0N7333uunVBGpSavvO1z-9" value="Backlight" style="whiteSpace=wrap;html=1;shadow=1;fontSize=18;fillColor=#f5f5f5;strokeColor=#666666;" vertex="1" parent="1">
          <mxGeometry x="696" y="660" width="123" height="40" as="geometry" />
        </mxCell>
        <mxCell id="0N7333uunVBGpSavvO1z-15" value="" style="edgeStyle=orthogonalEdgeStyle;rounded=0;orthogonalLoop=1;jettySize=auto;html=1;" edge="1" parent="1" source="0N7333uunVBGpSavvO1z-10" target="0N7333uunVBGpSavvO1z-13">
          <mxGeometry relative="1" as="geometry" />
        </mxCell>
        <mxCell id="0N7333uunVBGpSavvO1z-10" value="PWM I/O" style="whiteSpace=wrap;html=1;shadow=1;fontSize=18;fillColor=#f5f5f5;strokeColor=#666666;" vertex="1" parent="1">
          <mxGeometry x="834" y="660" width="123" height="40" as="geometry" />
        </mxCell>
        <mxCell id="0N7333uunVBGpSavvO1z-14" style="edgeStyle=orthogonalEdgeStyle;rounded=0;orthogonalLoop=1;jettySize=auto;html=1;entryX=0;entryY=0.5;entryDx=0;entryDy=0;" edge="1" parent="1" source="0N7333uunVBGpSavvO1z-11" target="0N7333uunVBGpSavvO1z-12">
          <mxGeometry relative="1" as="geometry" />
        </mxCell>
        <mxCell id="0N7333uunVBGpSavvO1z-11" value="LCD Driver" style="whiteSpace=wrap;html=1;shadow=1;fontSize=18;fillColor=#f5f5f5;strokeColor=#666666;" vertex="1" parent="1">
          <mxGeometry x="834" y="609" width="123" height="40" as="geometry" />
        </mxCell>
        <mxCell id="0N7333uunVBGpSavvO1z-12" value="LCD" style="whiteSpace=wrap;html=1;shadow=1;fontSize=18;fillColor=#f5f5f5;strokeColor=#666666;" vertex="1" parent="1">
          <mxGeometry x="1000" y="609" width="123" height="40" as="geometry" />
        </mxCell>
        <mxCell id="0N7333uunVBGpSavvO1z-13" value="Backlight" style="whiteSpace=wrap;html=1;shadow=1;fontSize=18;fillColor=#f5f5f5;strokeColor=#666666;" vertex="1" parent="1">
          <mxGeometry x="1000" y="660" width="123" height="40" as="geometry" />
        </mxCell>
        <mxCell id="0N7333uunVBGpSavvO1z-17" style="edgeStyle=orthogonalEdgeStyle;rounded=0;orthogonalLoop=1;jettySize=auto;html=1;" edge="1" parent="1" source="0N7333uunVBGpSavvO1z-16">
          <mxGeometry relative="1" as="geometry">
            <mxPoint x="450" y="510" as="targetPoint" />
          </mxGeometry>
        </mxCell>
        <mxCell id="0N7333uunVBGpSavvO1z-16" value="Buttons" style="whiteSpace=wrap;html=1;shadow=1;fontSize=18;fillColor=#f5f5f5;strokeColor=#666666;" vertex="1" parent="1">
          <mxGeometry x="210" y="480" width="120" height="60" as="geometry" />
        </mxCell>
        <mxCell id="0N7333uunVBGpSavvO1z-18" value="User Commands" style="whiteSpace=wrap;html=1;shadow=1;fontSize=18;fillColor=#f5f5f5;strokeColor=#666666;" vertex="1" parent="1">
          <mxGeometry x="450" y="495" width="140" height="30" as="geometry" />
        </mxCell>
        <mxCell id="0N7333uunVBGpSavvO1z-19" value="Debug" style="whiteSpace=wrap;html=1;shadow=1;fontSize=18;fillColor=#f5f5f5;strokeColor=#666666;" vertex="1" parent="1">
          <mxGeometry x="850.5" y="477" width="90" height="30" as="geometry" />
        </mxCell>
        <mxCell id="0N7333uunVBGpSavvO1z-20" value="Print" style="whiteSpace=wrap;html=1;shadow=1;fontSize=18;fillColor=#f5f5f5;strokeColor=#666666;" vertex="1" parent="1">
          <mxGeometry x="850.5" y="513" width="90" height="30" as="geometry" />
        </mxCell>
        <mxCell id="0N7333uunVBGpSavvO1z-21" value="Rendering" style="whiteSpace=wrap;html=1;shadow=1;fontSize=18;fillColor=#f5f5f5;strokeColor=#666666;" vertex="1" parent="1">
          <mxGeometry x="687.5" y="610" width="140" height="30" as="geometry" />
        </mxCell>
        <mxCell id="0N7333uunVBGpSavvO1z-22" value="Positional Conversion" style="whiteSpace=wrap;html=1;shadow=1;fontSize=18;fillColor=#f5f5f5;strokeColor=#666666;" vertex="1" parent="1">
          <mxGeometry x="520" y="569" width="140" height="51" as="geometry" />
        </mxCell>
        <mxCell id="0N7333uunVBGpSavvO1z-23" value="Power Supply" style="whiteSpace=wrap;html=1;shadow=1;fontSize=18;fillColor=#f5f5f5;strokeColor=#666666;" vertex="1" parent="1">
          <mxGeometry x="530" y="700" width="140" height="30" as="geometry" />
        </mxCell>
      </root>
    </mxGraphModel>
  </diagram>
</mxfile>
